<mxfile host="app.diagrams.net" modified="2022-09-15T08:53:59.132Z" agent="5.0 (Macintosh; Intel Mac OS X 10_15_7) AppleWebKit/605.1.15 (KHTML, like Gecko) Version/15.6 Safari/605.1.15" etag="wzfLa5YDjTdSphCrVyR1" version="20.3.0" type="github">
  <diagram id="R72xpftQf27Ip1RvpkjA" name="第 1 页">
    <mxGraphModel dx="2468" dy="2346" grid="1" gridSize="10" guides="1" tooltips="1" connect="1" arrows="1" fold="1" page="1" pageScale="1" pageWidth="1600" pageHeight="900" math="0" shadow="0">
      <root>
        <mxCell id="0" />
        <mxCell id="1" parent="0" />
        <mxCell id="VtOh25nKIVE9-SRD8lgk-8" style="edgeStyle=orthogonalEdgeStyle;rounded=0;orthogonalLoop=1;jettySize=auto;html=1;exitX=0.5;exitY=1;exitDx=0;exitDy=0;entryX=0.5;entryY=0;entryDx=0;entryDy=0;fontSize=18;" parent="1" source="5EwydSjhKdnhN7gfjWJQ-1" target="5EwydSjhKdnhN7gfjWJQ-2" edge="1">
          <mxGeometry relative="1" as="geometry" />
        </mxCell>
        <mxCell id="5EwydSjhKdnhN7gfjWJQ-1" value="conv2D 2x2x8" style="rounded=0;whiteSpace=wrap;html=1;fillColor=#dae8fc;strokeColor=#6c8ebf;fontSize=18;" parent="1" vertex="1">
          <mxGeometry x="80" y="50" width="440" height="30" as="geometry" />
        </mxCell>
        <mxCell id="VtOh25nKIVE9-SRD8lgk-10" style="edgeStyle=orthogonalEdgeStyle;rounded=0;orthogonalLoop=1;jettySize=auto;html=1;exitX=0.5;exitY=1;exitDx=0;exitDy=0;entryX=0.5;entryY=0;entryDx=0;entryDy=0;fontSize=18;" parent="1" source="5EwydSjhKdnhN7gfjWJQ-2" target="5EwydSjhKdnhN7gfjWJQ-3" edge="1">
          <mxGeometry relative="1" as="geometry" />
        </mxCell>
        <mxCell id="5EwydSjhKdnhN7gfjWJQ-2" value="conv2D 3x3x16" style="rounded=0;whiteSpace=wrap;html=1;fillColor=#dae8fc;strokeColor=#6c8ebf;fontSize=18;" parent="1" vertex="1">
          <mxGeometry x="135" y="90" width="330" height="40" as="geometry" />
        </mxCell>
        <mxCell id="9c9NpYE48J-kE4mlwr7C-1" style="edgeStyle=orthogonalEdgeStyle;rounded=0;orthogonalLoop=1;jettySize=auto;html=1;entryX=0.5;entryY=0;entryDx=0;entryDy=0;fontSize=18;" parent="1" source="5EwydSjhKdnhN7gfjWJQ-3" target="5EwydSjhKdnhN7gfjWJQ-5" edge="1">
          <mxGeometry relative="1" as="geometry" />
        </mxCell>
        <mxCell id="5EwydSjhKdnhN7gfjWJQ-3" value="conv2D 3x3x32" style="rounded=0;whiteSpace=wrap;html=1;fillColor=#dae8fc;strokeColor=#6c8ebf;fontSize=18;" parent="1" vertex="1">
          <mxGeometry x="192.5" y="150" width="215" height="60" as="geometry" />
        </mxCell>
        <mxCell id="9c9NpYE48J-kE4mlwr7C-4" style="edgeStyle=orthogonalEdgeStyle;rounded=0;orthogonalLoop=1;jettySize=auto;html=1;entryX=0.5;entryY=0;entryDx=0;entryDy=0;fontSize=18;" parent="1" source="5EwydSjhKdnhN7gfjWJQ-5" target="5EwydSjhKdnhN7gfjWJQ-6" edge="1">
          <mxGeometry relative="1" as="geometry" />
        </mxCell>
        <mxCell id="5EwydSjhKdnhN7gfjWJQ-5" value="conv2D&lt;br&gt;3x3x64" style="rounded=0;whiteSpace=wrap;html=1;fillColor=#dae8fc;strokeColor=#6c8ebf;fontSize=18;" parent="1" vertex="1">
          <mxGeometry x="251.25" y="230" width="97.5" height="120" as="geometry" />
        </mxCell>
        <mxCell id="VtOh25nKIVE9-SRD8lgk-16" style="edgeStyle=orthogonalEdgeStyle;rounded=0;orthogonalLoop=1;jettySize=auto;html=1;entryX=0.5;entryY=0;entryDx=0;entryDy=0;fontSize=18;" parent="1" source="5EwydSjhKdnhN7gfjWJQ-6" target="5EwydSjhKdnhN7gfjWJQ-7" edge="1">
          <mxGeometry relative="1" as="geometry" />
        </mxCell>
        <mxCell id="5EwydSjhKdnhN7gfjWJQ-6" value="&lt;font style=&quot;font-size: 18px;&quot;&gt;transpose&amp;nbsp;3x3x32&lt;/font&gt;" style="rounded=0;whiteSpace=wrap;html=1;fillColor=#f8cecc;strokeColor=#b85450;fontSize=18;" parent="1" vertex="1">
          <mxGeometry x="192.5" y="365" width="215" height="55" as="geometry" />
        </mxCell>
        <mxCell id="VtOh25nKIVE9-SRD8lgk-17" style="edgeStyle=orthogonalEdgeStyle;rounded=0;orthogonalLoop=1;jettySize=auto;html=1;entryX=0.5;entryY=0;entryDx=0;entryDy=0;fontSize=18;" parent="1" source="5EwydSjhKdnhN7gfjWJQ-7" target="5EwydSjhKdnhN7gfjWJQ-8" edge="1">
          <mxGeometry relative="1" as="geometry" />
        </mxCell>
        <mxCell id="5EwydSjhKdnhN7gfjWJQ-7" value="&lt;font style=&quot;font-size: 18px;&quot;&gt;transpose 3x3x16&lt;/font&gt;" style="rounded=0;whiteSpace=wrap;html=1;fillColor=#f8cecc;strokeColor=#b85450;fontSize=18;" parent="1" vertex="1">
          <mxGeometry x="151.25" y="440" width="297.5" height="50" as="geometry" />
        </mxCell>
        <mxCell id="VtOh25nKIVE9-SRD8lgk-18" style="edgeStyle=orthogonalEdgeStyle;rounded=0;orthogonalLoop=1;jettySize=auto;html=1;entryX=0.5;entryY=0;entryDx=0;entryDy=0;fontSize=18;" parent="1" source="5EwydSjhKdnhN7gfjWJQ-8" target="5EwydSjhKdnhN7gfjWJQ-9" edge="1">
          <mxGeometry relative="1" as="geometry" />
        </mxCell>
        <mxCell id="5EwydSjhKdnhN7gfjWJQ-8" value="conv2D 3x3x8" style="rounded=0;whiteSpace=wrap;html=1;fillColor=#f8cecc;strokeColor=#b85450;fontSize=18;" parent="1" vertex="1">
          <mxGeometry x="80" y="510" width="440" height="40" as="geometry" />
        </mxCell>
        <mxCell id="hk6Gac-A1WS6WhyC0ATv-3" style="edgeStyle=orthogonalEdgeStyle;rounded=0;orthogonalLoop=1;jettySize=auto;html=1;entryX=0.5;entryY=0;entryDx=0;entryDy=0;fontSize=18;" edge="1" parent="1" source="5EwydSjhKdnhN7gfjWJQ-9" target="hk6Gac-A1WS6WhyC0ATv-2">
          <mxGeometry relative="1" as="geometry" />
        </mxCell>
        <mxCell id="5EwydSjhKdnhN7gfjWJQ-9" value="conv2D 3x3x4" style="rounded=0;whiteSpace=wrap;html=1;fillColor=#f8cecc;strokeColor=#b85450;fontSize=18;" parent="1" vertex="1">
          <mxGeometry x="80" y="570" width="440" height="30" as="geometry" />
        </mxCell>
        <mxCell id="VtOh25nKIVE9-SRD8lgk-11" style="edgeStyle=orthogonalEdgeStyle;rounded=0;orthogonalLoop=1;jettySize=auto;html=1;entryX=0.5;entryY=0;entryDx=0;entryDy=0;fontSize=18;" parent="1" source="VtOh25nKIVE9-SRD8lgk-1" target="VtOh25nKIVE9-SRD8lgk-2" edge="1">
          <mxGeometry relative="1" as="geometry" />
        </mxCell>
        <mxCell id="VtOh25nKIVE9-SRD8lgk-1" value="&lt;font style=&quot;font-size: 18px;&quot;&gt;conv2D&lt;br&gt;3x3x128&lt;/font&gt;" style="rounded=0;whiteSpace=wrap;html=1;fillColor=#d5e8d4;strokeColor=#82b366;fontSize=18;" parent="1" vertex="1">
          <mxGeometry x="590" y="50" width="440" height="180" as="geometry" />
        </mxCell>
        <mxCell id="VtOh25nKIVE9-SRD8lgk-12" style="edgeStyle=orthogonalEdgeStyle;rounded=0;orthogonalLoop=1;jettySize=auto;html=1;entryX=0.5;entryY=0;entryDx=0;entryDy=0;fontSize=18;" parent="1" source="VtOh25nKIVE9-SRD8lgk-2" target="VtOh25nKIVE9-SRD8lgk-3" edge="1">
          <mxGeometry relative="1" as="geometry" />
        </mxCell>
        <mxCell id="VtOh25nKIVE9-SRD8lgk-2" value="&lt;font style=&quot;font-size: 18px;&quot;&gt;conv2D&lt;br&gt;3x3x64&lt;/font&gt;" style="rounded=0;whiteSpace=wrap;html=1;fillColor=#d5e8d4;strokeColor=#82b366;fontSize=18;" parent="1" vertex="1">
          <mxGeometry x="590" y="260" width="440" height="90" as="geometry" />
        </mxCell>
        <mxCell id="VtOh25nKIVE9-SRD8lgk-13" style="edgeStyle=orthogonalEdgeStyle;rounded=0;orthogonalLoop=1;jettySize=auto;html=1;fontSize=18;" parent="1" source="VtOh25nKIVE9-SRD8lgk-3" target="VtOh25nKIVE9-SRD8lgk-4" edge="1">
          <mxGeometry relative="1" as="geometry" />
        </mxCell>
        <mxCell id="VtOh25nKIVE9-SRD8lgk-3" value="&lt;font style=&quot;font-size: 18px;&quot;&gt;conv2D&lt;br&gt;3x3x32&lt;/font&gt;" style="rounded=0;whiteSpace=wrap;html=1;fillColor=#d5e8d4;strokeColor=#82b366;fontSize=18;" parent="1" vertex="1">
          <mxGeometry x="590" y="380" width="440" height="60" as="geometry" />
        </mxCell>
        <mxCell id="VtOh25nKIVE9-SRD8lgk-14" style="edgeStyle=orthogonalEdgeStyle;rounded=0;orthogonalLoop=1;jettySize=auto;html=1;entryX=0.5;entryY=0;entryDx=0;entryDy=0;fontSize=18;" parent="1" source="VtOh25nKIVE9-SRD8lgk-4" target="VtOh25nKIVE9-SRD8lgk-5" edge="1">
          <mxGeometry relative="1" as="geometry" />
        </mxCell>
        <mxCell id="VtOh25nKIVE9-SRD8lgk-4" value="&lt;font style=&quot;font-size: 18px;&quot;&gt;conv2D&lt;br&gt;3x3x16&lt;/font&gt;" style="rounded=0;whiteSpace=wrap;html=1;fillColor=#d5e8d4;strokeColor=#82b366;fontSize=18;" parent="1" vertex="1">
          <mxGeometry x="590" y="470" width="440" height="70" as="geometry" />
        </mxCell>
        <mxCell id="VtOh25nKIVE9-SRD8lgk-15" style="edgeStyle=orthogonalEdgeStyle;rounded=0;orthogonalLoop=1;jettySize=auto;html=1;entryX=0.5;entryY=0;entryDx=0;entryDy=0;fontSize=18;" parent="1" source="VtOh25nKIVE9-SRD8lgk-5" target="VtOh25nKIVE9-SRD8lgk-6" edge="1">
          <mxGeometry relative="1" as="geometry" />
        </mxCell>
        <mxCell id="VtOh25nKIVE9-SRD8lgk-5" value="&lt;font style=&quot;font-size: 18px;&quot;&gt;conv2D 3x3x8&lt;/font&gt;" style="rounded=0;whiteSpace=wrap;html=1;fillColor=#d5e8d4;strokeColor=#82b366;fontSize=18;" parent="1" vertex="1">
          <mxGeometry x="590" y="570" width="440" height="40" as="geometry" />
        </mxCell>
        <mxCell id="VtOh25nKIVE9-SRD8lgk-6" value="&lt;font style=&quot;font-size: 18px;&quot;&gt;conv2D 3x3x1&lt;/font&gt;" style="rounded=0;whiteSpace=wrap;html=1;fillColor=#d5e8d4;strokeColor=#82b366;fontSize=18;" parent="1" vertex="1">
          <mxGeometry x="590" y="630" width="440" height="20" as="geometry" />
        </mxCell>
        <mxCell id="9c9NpYE48J-kE4mlwr7C-8" style="edgeStyle=orthogonalEdgeStyle;rounded=0;orthogonalLoop=1;jettySize=auto;html=1;fontSize=18;" parent="1" source="9c9NpYE48J-kE4mlwr7C-5" target="9c9NpYE48J-kE4mlwr7C-6" edge="1">
          <mxGeometry relative="1" as="geometry" />
        </mxCell>
        <mxCell id="9c9NpYE48J-kE4mlwr7C-5" value="&lt;font style=&quot;font-size: 18px;&quot;&gt;conv2D&lt;br&gt;1x1x32&lt;/font&gt;" style="rounded=0;whiteSpace=wrap;html=1;fillColor=#fff2cc;strokeColor=#d6b656;fontSize=18;" parent="1" vertex="1">
          <mxGeometry x="1110" y="50" width="440" height="230" as="geometry" />
        </mxCell>
        <mxCell id="9c9NpYE48J-kE4mlwr7C-9" style="edgeStyle=orthogonalEdgeStyle;rounded=0;orthogonalLoop=1;jettySize=auto;html=1;entryX=0.5;entryY=0;entryDx=0;entryDy=0;fontSize=18;" parent="1" source="9c9NpYE48J-kE4mlwr7C-6" target="9c9NpYE48J-kE4mlwr7C-7" edge="1">
          <mxGeometry relative="1" as="geometry" />
        </mxCell>
        <mxCell id="9c9NpYE48J-kE4mlwr7C-6" value="&lt;font style=&quot;font-size: 18px;&quot;&gt;conv2D&lt;br&gt;1x1x16&lt;/font&gt;" style="rounded=0;whiteSpace=wrap;html=1;fillColor=#fff2cc;strokeColor=#d6b656;fontSize=18;" parent="1" vertex="1">
          <mxGeometry x="1110" y="330" width="440" height="170" as="geometry" />
        </mxCell>
        <mxCell id="9c9NpYE48J-kE4mlwr7C-7" value="&lt;font style=&quot;font-size: 18px;&quot;&gt;conv2D&lt;br&gt;1x1x1&lt;/font&gt;" style="rounded=0;whiteSpace=wrap;html=1;fillColor=#fff2cc;strokeColor=#d6b656;fontSize=18;" parent="1" vertex="1">
          <mxGeometry x="1110" y="560" width="440" height="90" as="geometry" />
        </mxCell>
        <mxCell id="9c9NpYE48J-kE4mlwr7C-10" value="&lt;font style=&quot;font-size: 36px;&quot;&gt;&lt;b&gt;Mode 1&lt;/b&gt;&lt;/font&gt;" style="text;html=1;align=center;verticalAlign=middle;resizable=0;points=[];autosize=1;strokeColor=none;fillColor=none;" parent="1" vertex="1">
          <mxGeometry x="80" y="-40" width="150" height="60" as="geometry" />
        </mxCell>
        <mxCell id="9c9NpYE48J-kE4mlwr7C-11" value="&lt;font style=&quot;font-size: 36px;&quot;&gt;&lt;b&gt;Mode 2&lt;/b&gt;&lt;/font&gt;" style="text;html=1;align=center;verticalAlign=middle;resizable=0;points=[];autosize=1;strokeColor=none;fillColor=none;" parent="1" vertex="1">
          <mxGeometry x="590" y="-40" width="150" height="60" as="geometry" />
        </mxCell>
        <mxCell id="9c9NpYE48J-kE4mlwr7C-12" value="&lt;font style=&quot;font-size: 36px;&quot;&gt;&lt;b&gt;Mode 3&lt;/b&gt;&lt;/font&gt;" style="text;html=1;align=center;verticalAlign=middle;resizable=0;points=[];autosize=1;strokeColor=none;fillColor=none;" parent="1" vertex="1">
          <mxGeometry x="1110" y="-40" width="150" height="60" as="geometry" />
        </mxCell>
        <mxCell id="hk6Gac-A1WS6WhyC0ATv-2" value="conv2D 3x3x1" style="rounded=0;whiteSpace=wrap;html=1;fillColor=#f8cecc;strokeColor=#b85450;fontSize=18;" vertex="1" parent="1">
          <mxGeometry x="80" y="620" width="440" height="30" as="geometry" />
        </mxCell>
      </root>
    </mxGraphModel>
  </diagram>
</mxfile>
